<?xml version="1.0" standalone="no"?>
<!DOCTYPE svg PUBLIC "-//W3C//DTD SVG 20010904//EN"
 "http://www.w3.org/TR/2001/REC-SVG-20010904/DTD/svg10.dtd">
<svg version="1.0" xmlns="http://www.w3.org/2000/svg"
 width="512.000000pt" height="512.000000pt" viewBox="0 0 512.000000 512.000000"
 preserveAspectRatio="xMidYMid meet">

<g transform="translate(0.000000,512.000000) scale(0.100000,-0.100000)"
fill="#000000" stroke="none">
<path d="M415 5110 c-183 -38 -330 -170 -391 -350 -18 -53 -19 -134 -19 -2200
0 -2066 1 -2147 19 -2200 52 -154 168 -274 322 -332 l59 -23 2155 0 2155 0 59
23 c154 58 270 178 322 332 18 53 19 134 19 2200 0 2066 -1 2147 -19 2200 -52
154 -168 274 -322 332 l-59 23 -2130 1 c-1172 1 -2148 -2 -2170 -6z m1640
-1555 c51 -25 115 -89 140 -140 19 -38 20 -62 20 -565 0 -502 -1 -527 -20
-565 -27 -55 -88 -112 -148 -141 l-52 -24 -597 0 -598 0 0 -295 0 -295 -170 0
-170 0 0 733 0 732 145 145 145 145 -142 5 -143 5 -3 143 -3 142 778 -2 c752
-3 779 -4 818 -23z m2605 -120 l0 -145 -715 0 -715 0 0 -735 0 -735 550 0 550
0 0 295 0 295 -272 0 -273 0 145 145 145 145 292 0 293 0 0 -585 0 -585 -165
0 -165 0 0 127 0 128 -128 -128 -128 -128 -480 3 c-475 3 -479 3 -521 26 -63
33 -106 74 -139 134 l-29 53 -3 789 c-2 679 0 797 13 841 23 81 112 171 193
195 15 5 370 9 790 9 l762 1 0 -145z"/>
<path d="M800 2723 l0 -568 128 128 127 127 418 0 417 0 0 440 0 440 -545 0
-545 0 0 -567z"/>
</g>
</svg>
